<svg xmlns="http://www.w3.org/2000/svg" version="1.1" xmlns:xlink="http://www.w3.org/1999/xlink" width="1500" height="273" viewBox="0 0 1500 273"><svg xml:space="preserve" width="1500" height="273" data-version="2" data-id="lg_EaklXXRE8bFpUK83sg" viewBox="0 0 597 273" x="0" y="0"><rect width="100%" height="100%" fill="transparent"></rect><g transform="translate(36.26 229.292)"><linearGradient id="a" x1="-.007" x2="7.242" y1="0" y2="0" gradientUnits="objectBoundingBox"><stop offset="0%" stop-color="#ffa62e"></stop><stop offset="100%" stop-color="#f71b3d"></stop></linearGradient><path fill="url(#a)" d="M174.79 401.45v9.71q-5.15-2.69-9.25-3.86-4.09-1.17-10.76-1.17-12.75 0-21.24 8.66-8.48 8.66-8.48 22.58 0 14.51 8.43 23.17 8.42 8.65 22.34 8.65 11.23 0 19.19-5.96v9.94q-7.25 4.92-19.89 4.92-17.78 0-28.9-10.94-11.11-10.94-11.11-29.78 0-17.78 11.29-28.96 11.29-11.17 28.37-11.17 12.28 0 20.01 4.21" transform="translate(-145.07 -437.665)"></path></g><g transform="translate(104.005 239.232)"><linearGradient id="b" x1="-1.079" x2="6.757" y1="0" y2="0" gradientUnits="objectBoundingBox"><stop offset="0%" stop-color="#ffa62e"></stop><stop offset="100%" stop-color="#f71b3d"></stop></linearGradient><path fill="url(#b)" d="M212.58 478.2q-12.76 0-20.19-8.6-7.42-8.6-7.42-21.7 0-13.22 7.66-22.06 7.66-8.83 19.95-8.83 13.45 0 20.76 8.66 7.32 8.66 7.32 22 0 13.22-7.49 21.87-7.49 8.66-20.59 8.66m0-53q-8.43 0-13.22 6.55-4.8 6.56-4.8 16.03 0 9.25 4.91 15.74 4.92 6.49 13.11 6.49 8.89 0 13.69-6.37 4.79-6.38 4.79-15.86 0-9.83-4.56-16.2-4.56-6.38-13.92-6.38" transform="translate(-212.815 -447.605)"></path></g><g transform="translate(168.295 227.887)"><linearGradient id="c" x1="-2.061" x2="5.697" y1="0" y2="0" gradientUnits="objectBoundingBox"><stop offset="0%" stop-color="#ffa62e"></stop><stop offset="100%" stop-color="#f71b3d"></stop></linearGradient><path fill="url(#c)" d="M276.81 469.66q7.25 0 12.34-5.38t5.09-17.2q0-11.23-5.26-16.5-5.27-5.26-11.59-5.26-7.37 0-12.22 5.91-4.86 5.91-4.86 16.9 0 9.6 4.68 15.56 4.68 5.97 11.82 5.97m17.43-42.82v-32.41h9.25v82.72h-9.25v-8.78q-6.31 9.72-18.25 9.72-11.82 0-18.54-8.78-6.73-8.77-6.73-21.29 0-13.93 7.14-22.53 7.13-8.6 18.36-8.6 11.59 0 18.02 9.95" transform="translate(-277.105 -436.26)"></path></g><g transform="translate(233.52 239.057)"><linearGradient id="d" x1="-3.324" x2="5.189" y1="0" y2="0" gradientUnits="objectBoundingBox"><stop offset="0%" stop-color="#ffa62e"></stop><stop offset="100%" stop-color="#f71b3d"></stop></linearGradient><path fill="url(#d)" d="M326.53 443.69h31.83v-2.34q0-7.37-3.98-11.76t-11-4.39q-6.67 0-11.35 4.8t-5.5 13.69m37.33 21.76v8.66q-6.91 3.62-16.85 3.62-13.45 0-21.7-8.24-8.25-8.25-8.25-21.82 0-14.16 7.37-22.35 7.37-8.19 18.95-8.19 11.12 0 17.67 7.14 6.55 7.13 6.55 20.24 0 3.74-.58 6.9h-40.49q1.06 8.77 6.67 13.45 5.62 4.68 14.75 4.68 9.94 0 15.91-4.09" transform="translate(-342.33 -447.43)"></path></g><g transform="translate(328.055 229.347)"><linearGradient id="e" x1="-4.565" x2="3.497" y1="0" y2="0" gradientUnits="objectBoundingBox"><stop offset="0%" stop-color="#ffa62e"></stop><stop offset="100%" stop-color="#f71b3d"></stop></linearGradient><path fill="url(#e)" d="M431.02 406.48h-10.89v31.47h11.94q8.07 0 12.34-4.38 4.27-4.39 4.27-11.29 0-15.8-17.66-15.8m11.35 38.03 20.7 32.64h-11.34l-19.31-31.12h-12.29v31.12h-9.47v-78.86h19.77q13.69 0 20.77 6.44 7.08 6.43 7.08 17.78-.24 8.19-4.33 13.92-4.1 5.74-11.58 8.08" transform="translate(-436.865 -437.72)"></path></g><g transform="translate(389.835 239.232)"><linearGradient id="f" x1="-5.426" x2="2.41" y1="0" y2="0" gradientUnits="objectBoundingBox"><stop offset="0%" stop-color="#ffa62e"></stop><stop offset="100%" stop-color="#f71b3d"></stop></linearGradient><path fill="url(#f)" d="M498.41 478.2q-12.76 0-20.18-8.6-7.43-8.6-7.43-21.7 0-13.22 7.66-22.06 7.66-8.83 19.95-8.83 13.45 0 20.77 8.66 7.31 8.66 7.31 22 0 13.22-7.49 21.87-7.49 8.66-20.59 8.66m0-53q-8.43 0-13.22 6.55-4.8 6.56-4.8 16.03 0 9.25 4.91 15.74 4.92 6.49 13.11 6.49 8.89 0 13.69-6.37 4.79-6.38 4.79-15.86 0-9.83-4.56-16.2-4.56-6.38-13.92-6.38" transform="translate(-498.645 -447.605)"></path></g><g transform="translate(455.585 239.232)"><linearGradient id="g" x1="-6.426" x2="1.41" y1="0" y2="0" gradientUnits="objectBoundingBox"><stop offset="0%" stop-color="#ffa62e"></stop><stop offset="100%" stop-color="#f71b3d"></stop></linearGradient><path fill="url(#g)" d="M564.16 478.2q-12.75 0-20.18-8.6t-7.43-21.7q0-13.22 7.66-22.06 7.67-8.83 19.95-8.83 13.46 0 20.77 8.66 7.31 8.66 7.31 22 0 13.22-7.49 21.87-7.48 8.66-20.59 8.66m0-53q-8.42 0-13.22 6.55-4.8 6.56-4.8 16.03 0 9.25 4.92 15.74 4.91 6.49 13.1 6.49 8.89 0 13.69-6.37 4.8-6.38 4.8-15.86 0-9.83-4.56-16.2-4.57-6.38-13.93-6.38" transform="translate(-564.395 -447.605)"></path></g><g transform="translate(508.88 232.037)"><linearGradient id="h" x1="-11.31" x2="1.147" y1="0" y2="0" gradientUnits="objectBoundingBox"><stop offset="0%" stop-color="#ffa62e"></stop><stop offset="100%" stop-color="#f71b3d"></stop></linearGradient><path fill="url(#h)" d="M634.95 425.32h-16.38v34.75q0 9.47 8.89 9.47 4.56 0 8.07-2.69v8.78q-3.86 2.1-8.66 2.1-17.55 0-17.55-17.9v-34.51h-9.47v-7.49h9.47v-14.74h9.25v14.74h16.38z" transform="translate(-617.69 -440.41)"></path></g><g transform="matrix(3.6408 .0635 -.0576 3.2989 82.631 71.156)"><linearGradient id="i" x1="0" x2="1" y1="0" y2="0" gradientUnits="objectBoundingBox"><stop offset="0%" stop-color="#6ee2f5"></stop><stop offset="100%" stop-color="#6454f0"></stop></linearGradient><path fill="url(#i)" d="M23.94 30.8 5 50l18.94 19.2a4.4 4.4 0 0 0 6.26 0 4.5 4.5 0 0 0 0-6.34l-12-12.16-3.63 2.28L30.2 37.14a4.5 4.5 0 0 0 0-6.34 4.4 4.4 0 0 0-6.26 0" transform="translate(-18.253 -50)"></path></g><g transform="matrix(3.6408 .0635 -.0576 3.2989 313.8 75.205)"><linearGradient id="j" x1="0" x2="1" y1="0" y2="0" gradientUnits="objectBoundingBox"><stop offset="0%" stop-color="#6ee2f5"></stop><stop offset="100%" stop-color="#6454f0"></stop></linearGradient><path fill="url(#j)" d="M76.06 30.8 95 50 76.06 69.2a4.4 4.4 0 0 1-6.26 0 4.5 4.5 0 0 1 0-6.34l12-12.16 3.63 2.28L69.8 37.14a4.5 4.5 0 0 1 0-6.33 4.4 4.4 0 0 1 6.26 0" transform="translate(-81.747 -50.005)"></path></g><g transform="matrix(3.6408 .0635 -.0576 3.2989 197.732 73.177)"><linearGradient id="k" x1="0" x2="1" y1="0" y2="0" gradientUnits="objectBoundingBox"><stop offset="0%" stop-color="#6ee2f5"></stop><stop offset="100%" stop-color="#6454f0"></stop></linearGradient><path fill="url(#k)" d="M60.9 32.35a4.5 4.5 0 0 0-2.37-2.47c-2.25-1-4.85.02-5.82 2.28L38.89 64.23a4.5 4.5 0 0 0 2.32 5.9c2.24 1 4.85-.03 5.82-2.3l13.82-32.06a4.5 4.5 0 0 0 .05-3.42" transform="translate(-49.867 -50.004)"></path></g><g transform="matrix(.0331 -.4735 .3696 .0258 432.537 123.64)"><linearGradient id="l" x1="0" x2="1" y1="0" y2="0" gradientUnits="objectBoundingBox"><stop offset="0%" stop-color="#6ee2f5"></stop><stop offset="100%" stop-color="#6454f0"></stop></linearGradient><path fill="url(#l)" fill-rule="evenodd" d="M408 8c4 20-1 42 4 64 10 9 22 34 30 46l25 45c12 8 22 20 31 31 13 14 130 161 54 73-14-16-56-67-68-74 8 59 65 142 75 253 16 174-9-54-25-80-14 31-31 165-14 39 11-60 15-45 0-87-8-23-63-140-63-145-24-38-29-41-43-64 3 74-21 170-17 228 0 0 20 31 23 35 8 15 27 46 38 73 17 41 18 61-4 3-4-9-24-45-41-71-9-13-16-23-20-27-6 44-18 100-18 141 0 9 18 65 21 73 34 93 66 272 8 42-4-16-25-67-32-78-8 21-1 124 2 148 2 21 56 342-5 21-15-80-5-168-1-249 11-84 17-158 23-242-29 59-56 139-79 200-31 93-76 248-6-1 20-72 52-147 69-207 14-48 12-131 3-190z" transform="translate(-423.2 -423.45)"></path></g></svg></svg>