<svg xmlns="http://www.w3.org/2000/svg" version="1.1" xmlns:xlink="http://www.w3.org/1999/xlink" width="100%" height="100%" viewBox="0 0 1200 305"><svg xml:space="preserve" width="1500" height="307" data-version="2" data-id="lg_EaklXXRE8bFpUK83sg" viewBox="0 0 659 307" x="0" y="0"><rect width="100%" height="100%" fill="transparent"></rect><g transform="translate(44.14 252.892)"><linearGradient id="a" x1="-.007" x2="7.619" y1="0" y2="0" gradientUnits="objectBoundingBox"><stop offset="0%" stop-color="#ffa62e"></stop><stop offset="100%" stop-color="#f71b3d"></stop></linearGradient><path fill="url(#a)" d="M127.27 393.76v12.03q-6.38-3.33-11.45-4.78-5.08-1.45-13.34-1.45-15.81 0-26.32 10.73t-10.51 27.98q0 17.98 10.44 28.71t27.69 10.73q13.92 0 23.78-7.39v12.32q-8.99 6.09-24.65 6.09-22.04 0-35.81-13.56-13.78-13.55-13.78-36.9 0-22.04 14-35.89 13.99-13.84 35.16-13.84 15.22 0 24.79 5.22" transform="translate(-90.44 -438.635)"></path></g><g transform="translate(128.1 265.217)"><linearGradient id="b" x1="-1.079" x2="7.161" y1="0" y2="0" gradientUnits="objectBoundingBox"><stop offset="0%" stop-color="#ffa62e"></stop><stop offset="100%" stop-color="#f71b3d"></stop></linearGradient><path fill="url(#b)" d="M174.11 488.88q-15.81 0-25.01-10.66-9.21-10.66-9.21-26.9 0-16.38 9.5-27.33 9.49-10.95 24.72-10.95 16.67 0 25.74 10.73 9.06 10.73 9.06 27.26 0 16.39-9.28 27.12t-25.52 10.73m0-65.69q-10.44 0-16.39 8.12-5.94 8.12-5.94 19.87 0 11.45 6.09 19.5t16.24 8.05q11.02 0 16.96-7.91 5.95-7.9 5.95-19.64 0-12.18-5.66-20.09-5.65-7.9-17.25-7.9" transform="translate(-174.4 -450.96)"></path></g><g transform="translate(207.775 251.152)"><linearGradient id="c" x1="-2.061" x2="6.098" y1="0" y2="0" gradientUnits="objectBoundingBox"><stop offset="0%" stop-color="#ffa62e"></stop><stop offset="100%" stop-color="#f71b3d"></stop></linearGradient><path fill="url(#c)" d="M253.71 478.29q8.99 0 15.3-6.67 6.31-6.67 6.31-21.31 0-13.92-6.53-20.45-6.52-6.52-14.35-6.52-9.14 0-15.15 7.32-6.02 7.32-6.02 20.95 0 11.89 5.8 19.29 5.8 7.39 14.64 7.39m21.61-53.07v-40.16h11.45v102.51h-11.45V476.7q-7.83 12.03-22.62 12.03-14.65 0-22.98-10.87-8.34-10.88-8.34-26.39 0-17.26 8.84-27.92 8.85-10.65 22.77-10.65 14.35 0 22.33 12.32" transform="translate(-254.075 -436.895)"></path></g><g transform="translate(288.61 265.002)"><linearGradient id="d" x1="-3.324" x2="5.624" y1="0" y2="0" gradientUnits="objectBoundingBox"><stop offset="0%" stop-color="#ffa62e"></stop><stop offset="100%" stop-color="#f71b3d"></stop></linearGradient><path fill="url(#d)" d="M315.34 446.1h39.44v-2.9q0-9.13-4.93-14.57-4.93-5.44-13.63-5.44-8.27 0-14.07 5.95-5.8 5.94-6.81 16.96m46.25 26.97v10.73q-8.55 4.5-20.88 4.5-16.67 0-26.89-10.23-10.23-10.22-10.23-27.04 0-17.54 9.14-27.69 9.13-10.15 23.49-10.15 13.77 0 21.89 8.84 8.12 8.85 8.12 25.09 0 4.64-.72 8.55h-50.17q1.3 10.88 8.26 16.68 6.96 5.8 18.27 5.8 12.33 0 19.72-5.08" transform="translate(-334.91 -450.745)"></path></g><g transform="translate(405.77 252.962)"><linearGradient id="e" x1="-4.565" x2="3.912" y1="0" y2="0" gradientUnits="objectBoundingBox"><stop offset="0%" stop-color="#ffa62e"></stop><stop offset="100%" stop-color="#f71b3d"></stop></linearGradient><path fill="url(#e)" d="M444.82 399.99h-13.48V439h14.79q10 0 15.3-5.44 5.29-5.44 5.29-13.99 0-19.58-21.9-19.58m14.07 47.13 25.66 40.45h-14.06L446.56 449h-15.22v38.57h-11.75v-97.73h24.51q16.96 0 25.74 7.98 8.77 7.97 8.77 22.04-.29 10.15-5.37 17.25-5.07 7.11-14.35 10.01" transform="translate(-452.07 -438.705)"></path></g><g transform="translate(482.33 265.217)"><linearGradient id="f" x1="-5.426" x2="2.814" y1="0" y2="0" gradientUnits="objectBoundingBox"><stop offset="0%" stop-color="#ffa62e"></stop><stop offset="100%" stop-color="#f71b3d"></stop></linearGradient><path fill="url(#f)" d="M528.34 488.88q-15.8 0-25.01-10.66t-9.21-26.9q0-16.38 9.5-27.33t24.72-10.95q16.68 0 25.74 10.73 9.06 10.73 9.06 27.26 0 16.39-9.28 27.12t-25.52 10.73m0-65.69q-10.44 0-16.38 8.12-5.95 8.12-5.95 19.87 0 11.45 6.09 19.5t16.24 8.05q11.02 0 16.97-7.91 5.94-7.9 5.94-19.64 0-12.18-5.65-20.09-5.66-7.9-17.26-7.9" transform="translate(-528.63 -450.96)"></path></g><g transform="translate(563.82 265.217)"><linearGradient id="g" x1="-6.426" x2="1.814" y1="0" y2="0" gradientUnits="objectBoundingBox"><stop offset="0%" stop-color="#ffa62e"></stop><stop offset="100%" stop-color="#f71b3d"></stop></linearGradient><path fill="url(#g)" d="M609.83 488.88q-15.8 0-25.01-10.66t-9.21-26.9q0-16.38 9.5-27.33t24.72-10.95q16.68 0 25.74 10.73 9.06 10.73 9.06 27.26 0 16.39-9.28 27.12t-25.52 10.73m0-65.69q-10.44 0-16.38 8.12-5.95 8.12-5.95 19.87 0 11.45 6.09 19.5t16.24 8.05q11.02 0 16.97-7.91 5.94-7.9 5.94-19.64 0-12.18-5.65-20.09-5.66-7.9-17.26-7.9" transform="translate(-610.12 -450.96)"></path></g><g transform="translate(629.87 256.302)"><linearGradient id="h" x1="-11.31" x2="1.763" y1="0" y2="0" gradientUnits="objectBoundingBox"><stop offset="0%" stop-color="#ffa62e"></stop><stop offset="100%" stop-color="#f71b3d"></stop></linearGradient><path fill="url(#h)" d="M697.56 423.34h-20.3v43.06q0 11.75 11.02 11.75 5.65 0 10-3.34v10.88q-4.78 2.61-10.73 2.61-21.75 0-21.75-22.19v-42.77h-11.74v-9.28h11.74v-18.27h11.46v18.27h20.3z" transform="translate(-676.17 -442.045)"></path></g><g transform="matrix(3.8498 0 0 3.4883 132.24 74.763)"><linearGradient id="i" x1="0" x2="1" y1="0" y2="0" gradientUnits="objectBoundingBox"><stop offset="0%" stop-color="#6ee2f5"></stop><stop offset="100%" stop-color="#6454f0"></stop></linearGradient><path fill="url(#i)" d="M23.94 30.8 5 50l18.94 19.2a4.4 4.4 0 0 0 6.26 0 4.5 4.5 0 0 0 0-6.34l-12-12.16-3.63 2.28L30.2 37.14a4.5 4.5 0 0 0 0-6.34 4.4 4.4 0 0 0-6.26 0" transform="translate(-18.253 -50)"></path></g><g transform="matrix(3.8498 0 0 3.4883 376.678 74.78)"><linearGradient id="j" x1="0" x2="1" y1="0" y2="0" gradientUnits="objectBoundingBox"><stop offset="0%" stop-color="#6ee2f5"></stop><stop offset="100%" stop-color="#6454f0"></stop></linearGradient><path fill="url(#j)" d="M76.06 30.8 95 50 76.06 69.2a4.4 4.4 0 0 1-6.26 0 4.5 4.5 0 0 1 0-6.34l12-12.16 3.63 2.28L69.8 37.14a4.5 4.5 0 0 1 0-6.33 4.4 4.4 0 0 1 6.26 0" transform="translate(-81.747 -50.005)"></path></g><g transform="matrix(3.8498 0 0 3.4883 253.947 74.777)"><linearGradient id="k" x1="0" x2="1" y1="0" y2="0" gradientUnits="objectBoundingBox"><stop offset="0%" stop-color="#6ee2f5"></stop><stop offset="100%" stop-color="#6454f0"></stop></linearGradient><path fill="url(#k)" d="M60.9 32.35a4.5 4.5 0 0 0-2.37-2.47c-2.25-1-4.85.02-5.82 2.28L38.89 64.23a4.5 4.5 0 0 0 2.32 5.9c2.24 1 4.85-.03 5.82-2.3l13.82-32.06a4.5 4.5 0 0 0 .05-3.42" transform="translate(-49.867 -50.004)"></path></g><g transform="matrix(.0312 -.4455 .3478 .0243 477.47 137.425)"><linearGradient id="l" x1="0" x2="1" y1="0" y2="0" gradientUnits="objectBoundingBox"><stop offset="0%" stop-color="#6ee2f5"></stop><stop offset="100%" stop-color="#6454f0"></stop></linearGradient><path fill="url(#l)" fill-rule="evenodd" d="M408 8c4 20-1 42 4 64 10 9 22 34 30 46l25 45c12 8 22 20 31 31 13 14 130 161 54 73-14-16-56-67-68-74 8 59 65 142 75 253 16 174-9-54-25-80-14 31-31 165-14 39 11-60 15-45 0-87-8-23-63-140-63-145-24-38-29-41-43-64 3 74-21 170-17 228 0 0 20 31 23 35 8 15 27 46 38 73 17 41 18 61-4 3-4-9-24-45-41-71-9-13-16-23-20-27-6 44-18 100-18 141 0 9 18 65 21 73 34 93 66 272 8 42-4-16-25-67-32-78-8 21-1 124 2 148 2 21 56 342-5 21-15-80-5-168-1-249 11-84 17-158 23-242-29 59-56 139-79 200-31 93-76 248-6-1 20-72 52-147 69-207 14-48 12-131 3-190z" transform="translate(-423.2 -423.45)"></path></g></svg></svg>