<svg xmlns="http://www.w3.org/2000/svg" version="1.1" xmlns:xlink="http://www.w3.org/1999/xlink" width="1500" height="270" viewBox="0 0 1500 270"><svg xml:space="preserve" width="1500" height="270" data-version="2" data-id="lg_EaklXXRE8bFpUK83sg" viewBox="0 0 577 270" x="0" y="0"><rect width="100%" height="100%" fill="transparent"></rect><g transform="translate(38.56 223.03)"><linearGradient id="a" x1="-.007" x2="7.246" y1="0" y2="0" gradientUnits="objectBoundingBox"><stop offset="0%" stop-color="#ffa62e"></stop><stop offset="100%" stop-color="#f71b3d"></stop></linearGradient><path fill="url(#a)" d="M180.41 403.82v10.54q-5.59-2.92-10.03-4.19-4.45-1.27-11.69-1.27-13.84 0-23.05 9.39-9.21 9.4-9.21 24.51 0 15.75 9.15 25.15 9.14 9.4 24.26 9.4 12.19 0 20.82-6.48v10.8q-7.87 5.33-21.59 5.33-19.3 0-31.37-11.87-12.06-11.88-12.06-32.33 0-19.3 12.26-31.43 12.25-12.13 30.79-12.13 13.34 0 21.72 4.58" transform="translate(-148.15 -443.12)"></path></g><g transform="translate(112.095 233.83)"><linearGradient id="b" x1="-1.079" x2="6.762" y1="0" y2="0" gradientUnits="objectBoundingBox"><stop offset="0%" stop-color="#ffa62e"></stop><stop offset="100%" stop-color="#f71b3d"></stop></linearGradient><path fill="url(#b)" d="M221.43 487.13q-13.84 0-21.91-9.34-8.06-9.33-8.06-23.56 0-14.35 8.32-23.93 8.32-9.59 21.65-9.59 14.61 0 22.54 9.39 7.94 9.4 7.94 23.88 0 14.35-8.13 23.75t-22.35 9.4m0-57.53q-9.14 0-14.35 7.11-5.21 7.11-5.21 17.4 0 10.03 5.34 17.08 5.33 7.05 14.22 7.05 9.65 0 14.86-6.92 5.21-6.93 5.21-17.21 0-10.67-4.96-17.59-4.95-6.92-15.11-6.92" transform="translate(-221.685 -453.92)"></path></g><g transform="translate(181.88 221.51)"><linearGradient id="c" x1="-2.061" x2="5.702" y1="0" y2="0" gradientUnits="objectBoundingBox"><stop offset="0%" stop-color="#ffa62e"></stop><stop offset="100%" stop-color="#f71b3d"></stop></linearGradient><path fill="url(#c)" d="M291.15 477.86q7.88 0 13.4-5.85 5.53-5.84 5.53-18.66 0-12.2-5.72-17.91-5.71-5.72-12.57-5.72-8 0-13.27 6.42-5.27 6.41-5.27 18.35 0 10.41 5.08 16.89t12.82 6.48m18.93-46.49V396.2h10.03v89.78h-10.03v-9.52Q303.22 487 290.26 487q-12.82 0-20.12-9.52-7.31-9.53-7.31-23.12 0-15.11 7.75-24.45 7.75-9.33 19.94-9.33 12.57 0 19.56 10.79" transform="translate(-291.47 -441.6)"></path></g><g transform="translate(252.685 233.636)"><linearGradient id="d" x1="-3.324" x2="5.194" y1="0" y2="0" gradientUnits="objectBoundingBox"><stop offset="0%" stop-color="#ffa62e"></stop><stop offset="100%" stop-color="#f71b3d"></stop></linearGradient><path fill="url(#d)" d="M345.13 449.66h34.54v-2.54q0-8-4.32-12.76-4.31-4.76-11.93-4.76-7.24 0-12.32 5.2-5.08 5.21-5.97 14.86m40.51 23.62v9.4q-7.49 3.94-18.29 3.94-14.6 0-23.55-8.95-8.96-8.96-8.96-23.69 0-15.37 8-24.26 8-8.89 20.58-8.89 12.06 0 19.17 7.75 7.12 7.75 7.12 21.97 0 4.07-.64 7.49h-43.94q1.14 9.53 7.24 14.61 6.09 5.08 16 5.08 10.79 0 17.27-4.45" transform="translate(-362.275 -453.725)"></path></g><g transform="translate(355.3 223.096)"><linearGradient id="e" x1="-4.565" x2="3.502" y1="0" y2="0" gradientUnits="objectBoundingBox"><stop offset="0%" stop-color="#ffa62e"></stop><stop offset="100%" stop-color="#f71b3d"></stop></linearGradient><path fill="url(#e)" d="M458.54 409.28h-11.81v34.16h12.95q8.77 0 13.4-4.76 4.64-4.77 4.64-12.26 0-17.14-19.18-17.14m12.32 41.27 22.48 35.43h-12.32l-20.96-33.78h-13.33v33.78h-10.29v-85.59h21.46q14.86 0 22.55 6.98 7.68 6.99 7.68 19.31-.25 8.89-4.7 15.11-4.44 6.22-12.57 8.76" transform="translate(-464.89 -443.185)"></path></g><g transform="translate(422.355 233.83)"><linearGradient id="f" x1="-5.426" x2="2.415" y1="0" y2="0" gradientUnits="objectBoundingBox"><stop offset="0%" stop-color="#ffa62e"></stop><stop offset="100%" stop-color="#f71b3d"></stop></linearGradient><path fill="url(#f)" d="M531.69 487.13q-13.84 0-21.91-9.34-8.06-9.33-8.06-23.56 0-14.35 8.32-23.93 8.32-9.59 21.65-9.59 14.61 0 22.54 9.39 7.94 9.4 7.94 23.88 0 14.35-8.13 23.75-8.12 9.4-22.35 9.4m0-57.53q-9.14 0-14.35 7.11-5.21 7.11-5.21 17.4 0 10.03 5.34 17.08 5.33 7.05 14.22 7.05 9.65 0 14.86-6.92 5.21-6.93 5.21-17.21 0-10.67-4.96-17.59-4.95-6.92-15.11-6.92" transform="translate(-531.945 -453.92)"></path></g><g transform="translate(493.73 233.83)"><linearGradient id="g" x1="-6.426" x2="1.415" y1="0" y2="0" gradientUnits="objectBoundingBox"><stop offset="0%" stop-color="#ffa62e"></stop><stop offset="100%" stop-color="#f71b3d"></stop></linearGradient><path fill="url(#g)" d="M603.07 487.13q-13.85 0-21.91-9.34-8.07-9.33-8.07-23.56 0-14.35 8.32-23.93 8.32-9.59 21.66-9.59 14.6 0 22.54 9.39 7.94 9.4 7.94 23.88 0 14.35-8.13 23.75t-22.35 9.4m0-57.53q-9.15 0-14.36 7.11-5.2 7.11-5.2 17.4 0 10.03 5.33 17.08 5.34 7.05 14.23 7.05 9.65 0 14.85-6.92 5.21-6.93 5.21-17.21 0-10.67-4.95-17.59t-15.11-6.92" transform="translate(-603.32 -453.92)"></path></g><g transform="translate(551.58 226.016)"><linearGradient id="h" x1="-11.31" x2="1.155" y1="0" y2="0" gradientUnits="objectBoundingBox"><stop offset="0%" stop-color="#ffa62e"></stop><stop offset="100%" stop-color="#f71b3d"></stop></linearGradient><path fill="url(#h)" d="M679.9 429.72h-17.78v37.72q0 10.29 9.65 10.29 4.96 0 8.77-2.92v9.52q-4.2 2.29-9.4 2.29-19.05 0-19.05-19.43v-37.47H641.8v-8.12h10.29v-16.01h10.03v16.01h17.78z" transform="translate(-661.17 -446.105)"></path></g><g transform="matrix(1.8621 -.7523 .7802 1.9311 264.006 104.483)"><linearGradient id="i" x1="0" x2="1" y1="0" y2="0" gradientUnits="objectBoundingBox"><stop offset="0%" stop-color="#6ee2f5"></stop><stop offset="100%" stop-color="#6454f0"></stop></linearGradient><path fill="url(#i)" d="M5.17 62.09s2.8-30.76 42.5-32.16c39.7-1.4 46.43-15.66 46.43-15.66s7.83 45.02-23.49 63.2-54.52-2.24-54.52-2.24 6.15-20.41 32.71-16.78c26.56 3.63 32.44-23.2 32.44-23.2s-8.11 20.4-32.72 17.33c-24.61-3.07-34.67 1.68-43.34 9.5" transform="translate(-50.07 -49.639)"></path></g></svg></svg>